<svg width="112" height="37" viewBox="0 0 112 37" fill="none" xmlns="http://www.w3.org/2000/svg">
<path d="M47.014 9.52631V13.0893L52.221 18.2963L47.014 23.5043V27.0663H50.576L55.784 21.8593L60.991 27.0663H64.563V23.5043L59.346 18.2963L64.563 13.0893V9.52631H60.991L55.784 14.7343L50.576 9.52631H47.014Z" fill="#1F28BF"/>
<path fill-rule="evenodd" clip-rule="evenodd" d="M22.15 9.52631H9V27.0663H13.38V13.7283H22.15V27.0663H26.54V13.9063L22.15 9.52631ZM41.167 9.52631V22.8653H32.387V9.52631H28.007V22.6863L32.387 27.0663H45.547V9.52631H41.167ZM102.577 13.9063L98.187 9.52631H85.027V22.6863L89.417 27.0663H102.577V13.9063ZM98.187 22.8653V13.7283H89.417V22.8653H98.187ZM83.57 9.52631V13.7283H70.41V16.1623H83.382V20.3363H70.41V22.8663H83.57V27.0663H66.02V9.52631H83.57Z" fill="#0066FF"/>
</svg>
