<svg width="40" height="41" viewBox="0 0 40 41" fill="none" xmlns="http://www.w3.org/2000/svg">
<g clip-path="url(#clip0_345_890)">
<circle cx="20" cy="20.5263" r="20" fill="white"/>
<circle cx="20" cy="20.5263" r="16" fill="#F5F5F5"/>
<path d="M12.4033 22.6826L13.5996 22.5185C13.6315 23.2841 13.7751 23.8082 14.0303 24.0908C14.2855 24.3733 14.6387 24.5146 15.0898 24.5146C15.4225 24.5146 15.7096 24.4394 15.9512 24.289C16.1927 24.1341 16.359 23.9267 16.4502 23.6669C16.5413 23.4026 16.5869 22.9833 16.5869 22.4091V15.5048H17.9131V22.3339C17.9131 23.1725 17.8105 23.8219 17.6055 24.2822C17.4049 24.7425 17.0837 25.0934 16.6416 25.3349C16.2041 25.5764 15.6891 25.6972 15.0967 25.6972C14.2171 25.6972 13.5426 25.4443 13.0732 24.9384C12.6084 24.4326 12.3851 23.6806 12.4033 22.6826ZM26.9305 22.0126L28.2566 22.3476C27.9786 23.4368 27.4773 24.2685 26.7527 24.8427C26.0327 25.4124 25.1508 25.6972 24.1072 25.6972C23.0271 25.6972 22.1476 25.4785 21.4686 25.041C20.7941 24.5989 20.2791 23.9609 19.9236 23.1269C19.5727 22.2929 19.3973 21.3974 19.3973 20.4404C19.3973 19.3968 19.5955 18.4876 19.992 17.7128C20.393 16.9335 20.9604 16.3434 21.6941 15.9423C22.4324 15.5367 23.2436 15.3339 24.1277 15.3339C25.1303 15.3339 25.9734 15.5891 26.657 16.0996C27.3406 16.61 27.8169 17.3277 28.0857 18.2529L26.7801 18.5605C26.5477 17.8313 26.2104 17.3004 25.7684 16.9677C25.3263 16.635 24.7703 16.4687 24.1004 16.4687C23.3302 16.4687 22.6854 16.6533 22.1658 17.0224C21.6508 17.3915 21.2885 17.8883 21.0789 18.5126C20.8693 19.1324 20.7645 19.7727 20.7645 20.4335C20.7645 21.2858 20.8875 22.0309 21.1336 22.6689C21.3842 23.3024 21.7716 23.7763 22.2957 24.0908C22.8198 24.4052 23.3872 24.5624 23.9979 24.5624C24.7407 24.5624 25.3696 24.3483 25.8846 23.9199C26.3995 23.4915 26.7482 22.8557 26.9305 22.0126Z" fill="#616161"/>
</g>
<defs>
<clipPath id="clip0_345_890">
<rect width="40" height="40" fill="white" transform="translate(0 0.526314)"/>
</clipPath>
</defs>
</svg>
